<?xml version="1.0" encoding="UTF-8" standalone="no"?> <!-- Created with Vectornator for iOS (http://vectornator.io/) --><!DOCTYPE svg PUBLIC "-//W3C//DTD SVG 1.1//EN" "http://www.w3.org/Graphics/SVG/1.1/DTD/svg11.dtd">
<svg height="100%" style="fill-rule:nonzero;clip-rule:evenodd;stroke-linecap:round;stroke-linejoin:round;" xmlns:xlink="http://www.w3.org/1999/xlink" xmlns="http://www.w3.org/2000/svg" xml:space="preserve" width="100%" xmlns:vectornator="http://vectornator.io" version="1.1" viewBox="0 0 266 78">
<metadata>
<vectornator:setting key="DimensionsVisible" value="1"/>
<vectornator:setting key="PencilOnly" value="0"/>
<vectornator:setting key="SnapToPoints" value="0"/>
<vectornator:setting key="OutlineMode" value="0"/>
<vectornator:setting key="RulersVisible" value="1"/>
<vectornator:setting key="CMYKEnabledKey" value="0"/>
<vectornator:setting key="SnapToEdges" value="0"/>
<vectornator:setting key="GuidesVisible" value="1"/>
<vectornator:setting key="DisplayWhiteBackground" value="0"/>
<vectornator:setting key="doHistoryDisabled" value="0"/>
<vectornator:setting key="SnapToGuides" value="1"/>
<vectornator:setting key="TimeLapseWatermarkDisabled" value="0"/>
<vectornator:setting key="DynamicGuides" value="0"/>
<vectornator:setting key="SnapToGrid" value="0"/>
<vectornator:setting key="Units" value="Points"/>
<vectornator:setting key="IsolateActiveLayer" value="0"/>
</metadata>
<defs/>
<g id="Untitled" vectornator:layerName="Untitled">
<path d="M38.1203+54.3931C38.1203+56.3371+39.0383+57.8491+40.3343+59.1451C41.3063+60.0631+42.1163+59.7391+42.7643+58.8211C47.7323+51.1531+53.9963+43.1071+58.2623+37.5991C63.7163+30.5791+64.3643+28.0951+64.0943+26.1511C63.9323+24.9091+63.0143+24.5851+62.0423+25.7731C56.8043+32.4151+48.8123+41.9731+43.1963+50.6671C45.1943+42.9451+46.7063+39.3271+48.3803+34.3591C49.0823+32.3071+49.3523+31.0111+49.3523+30.0391C49.3523+28.8511+48.9743+28.0411+48.3263+27.1771C47.5703+26.0971+46.7063+26.3671+46.1123+27.0691C41.3603+32.7931+34.6103+41.8111+29.6963+49.3711C31.6943+42.6211+32.7743+40.4071+34.5563+35.6551C35.6363+32.7391+36.3383+30.3631+36.3383+28.8511C36.3383+27.8791+36.1763+27.1771+35.6363+26.2051C34.9343+25.0171+34.0163+25.0711+33.2603+26.4211C30.6143+31.4971+26.2943+43.7551+24.4043+51.8011C24.1343+53.0431+23.9723+54.0151+23.9723+54.9871C23.9723+56.9311+24.6203+58.2271+26.0243+59.4691C27.1043+60.3331+27.9683+59.9551+28.5083+59.0911C32.2343+53.0971+37.6343+45.3751+42.0623+39.3811C40.6583+43.7011+39.0923+48.5071+38.4443+51.5311C38.2283+52.6111+38.1203+53.5831+38.1203+54.3931Z" opacity="1" fill="#b9716b"/>
<path d="M69.7643+40.2991C70.3583+40.7851+69.2243+43.3231+67.6583+45.4291C66.5783+46.8871+64.8503+48.5071+63.5543+48.5071C63.1763+48.5071+62.7983+48.3991+62.3663+48.1291C64.9583+42.9451+68.9543+39.6511+69.7643+40.2991ZM73.8143+42.4591C73.8143+41.7571+73.5983+40.9471+73.2743+40.4611C72.5183+39.3811+71.4383+38.5171+69.9263+37.6531C69.3863+37.3291+68.7923+37.2211+68.0363+37.2211C64.9043+37.2211+60.5303+40.0831+57.7223+45.8071C56.5883+47.9671+56.0483+50.0731+56.0483+52.0171C56.0483+56.3371+58.8023+59.6311+63.8243+59.5771C68.0363+59.5231+72.3563+56.9851+74.6243+53.6911C75.5963+52.2331+75.5423+50.6671+75.3803+50.1811C74.9483+49.1011+74.2463+49.2091+73.6523+50.0731C71.4383+53.4211+67.8203+57.4171+63.7163+57.4171C62.0963+57.4171+61.1243+55.7431+61.1243+53.3671C61.1243+52.3951+61.2863+51.2611+61.6103+50.1811C62.8523+50.9911+64.1483+51.3691+65.4443+51.3691C70.1963+51.3691+73.8143+45.6991+73.8143+42.4591Z" opacity="1" fill="#b9716b"/>
<path d="M88.0163+42.0811C88.0163+43.6471+87.4223+45.9691+85.8563+49.0471C83.1563+54.5551+81.0503+56.2291+79.5383+56.2291C78.4583+56.2291+77.5403+54.6091+77.4323+53.0431C79.4303+48.9391+81.8603+44.6191+84.1283+42.2431C85.5863+40.8391+86.6123+40.2451+87.2603+40.2451C87.8543+40.2451+88.0163+40.8931+88.0163+42.0811ZM92.6063+42.6751C92.6063+39.5971+91.3103+37.4371+88.3403+37.4371C87.4763+37.4371+86.2883+37.8691+85.3163+38.4091C86.8823+35.6551+88.2323+33.6031+89.0423+32.1451C90.3383+29.8231+90.9323+27.7171+90.9323+26.2591C90.9323+25.3951+90.7703+24.6391+90.3923+23.9911C89.6903+22.7491+88.9343+22.7491+88.1243+23.9371C83.5883+30.6331+74.1923+48.2371+72.6263+52.9891C71.4923+56.4451+72.0863+57.9031+72.9503+59.0911C73.6523+60.0091+74.3003+59.8471+74.7863+58.8211L75.8663+56.4451C76.9463+58.2271+78.7823+59.3071+81.3743+59.3071C84.7223+59.3071+88.1243+56.1751+90.6623+50.5591C92.0123+47.6431+92.6063+44.8351+92.6063+42.6751Z" opacity="1" fill="#b9716b"/>
<path d="M102.866+52.7191C107.132+57.6331+112.37+59.8471+116.312+59.8471C119.552+59.8471+122.198+58.7131+123.602+57.0931C125.006+55.4191+125.708+54.0151+125.708+52.7731C125.708+51.7471+125.114+50.7751+124.088+50.0191C121.982+48.5071+114.584+45.4291+114.746+41.8651C115.016+35.6551+126.842+27.7171+128.84+29.1751C129.596+29.7151+128.138+32.0911+126.788+34.0891C125.006+36.4651+124.304+38.5171+124.304+39.7051C124.304+40.9471+124.844+41.8651+125.6+42.6211C126.626+43.7011+127.22+43.2691+127.706+42.4051C128.462+41.1091+130.028+38.3011+131.324+36.5731C132.134+35.3851+133.484+33.2251+132.944+31.0111C132.566+29.5531+131.594+27.7711+130.082+26.3671C129.164+25.6111+128.084+25.2331+126.788+25.2331C125.546+25.2331+124.412+25.3951+122.63+26.1511C117.77+28.2031+109.346+34.6291+109.346+41.9731C109.346+47.4811+116.852+50.3971+120.74+53.4211C121.334+53.9071+121.604+54.8791+120.794+55.6891C120.2+56.2831+119.12+56.5531+117.932+56.5531C114.8+56.5531+111.236+53.8531+109.13+52.1251C107.996+51.2071+106.484+50.7751+104.918+50.7751C104.27+50.7751+103.676+50.8291+103.244+50.9371C102.488+51.2071+102.11+51.8011+102.866+52.7191Z" opacity="1" fill="#752d27"/>
<path d="M150.872+53.7451C151.682+52.1251+151.304+50.8831+151.034+50.2351C150.602+49.3171+149.738+49.4251+149.36+50.2351C147.74+53.5291+144.878+57.3631+142.988+57.3631C142.232+57.3631+141.962+56.6611+141.962+55.5271C141.962+54.6631+142.178+53.5291+142.664+52.3411C143.258+51.0451+144.608+48.7771+147.578+43.4851C148.01+42.7291+148.172+41.9731+148.172+41.2171C148.172+39.1111+146.606+37.4371+145.04+37.4371C144.014+37.4371+142.124+38.0851+140.504+39.2731C141.044+38.5171+144.392+33.4951+145.472+31.7131C146.768+29.4451+147.416+27.4471+147.416+25.9891C147.416+25.2331+147.254+24.5311+146.984+23.9371C146.498+22.8571+145.688+22.6411+144.824+23.7211C140.45+29.3371+129.758+47.4271+127.598+53.0971C126.248+56.6611+127.004+57.9571+127.868+58.9831C128.516+59.7931+129.326+59.6311+129.758+58.6591C131.054+55.4191+132.998+51.6931+134.834+48.6691C137.696+44.0251+142.826+40.6231+143.312+40.6231C143.69+40.6231+142.88+41.9191+141.854+43.7011C139.802+46.8871+137.156+51.5851+137.156+54.9871C137.156+57.7951+138.776+59.5771+142.34+59.5771C145.796+59.5771+149.306+56.8771+150.872+53.7451Z" opacity="1" fill="#752d27"/>
<path d="M173.444+53.8531C173.444+52.4491+173.822+50.8291+174.416+49.2091L176.306+46.1311C178.682+42.1891+181.328+40.1371+182.354+40.1371C182.732+40.1371+182.84+40.8931+182.84+41.8651C182.84+43.7011+182.138+46.3471+180.896+48.9391C178.898+53.0431+176.306+56.4451+174.794+56.4991C173.93+56.4991+173.444+55.4191+173.444+53.8531ZM163.022+45.1591C162.428+44.4571+162.158+43.0531+162.158+42.0811C162.158+41.2171+162.644+40.7851+162.968+40.7851C163.346+40.7851+163.778+41.1091+163.778+41.9191C163.778+42.6211+163.562+43.9171+163.022+45.1591ZM153.518+54.5011C153.518+50.2891+156.164+45.5371+158.81+42.7291C159.296+44.2411+160.754+45.8611+162.266+46.7791C161.78+48.1831+161.078+49.6411+160.322+51.0991C158.486+54.5011+156.272+56.6071+154.814+56.6071C153.95+56.6071+153.518+56.0131+153.518+54.5011ZM191.372+50.4511C191.156+49.3711+190.022+49.1011+189.482+50.2351C188.078+53.2051+184.406+56.7691+180.626+57.6331C182.192+56.3371+183.92+53.6371+185.216+51.0991C186.404+48.6151+187.322+45.7531+187.322+43.4311C187.322+41.8111+186.89+40.3531+185.756+39.1651C184.946+38.1931+183.812+37.7611+182.678+37.7611C181.058+37.7611+179.546+38.5171+178.196+39.5971C178.088+39.0571+177.926+38.5171+177.764+38.0851C177.278+36.8971+176.306+36.6811+175.496+37.9231C172.904+41.8111+169.988+45.3751+167.126+45.9151C167.504+42.2971+166.316+41.5411+164.534+39.4351C163.508+38.0311+162.536+37.4911+160.97+37.4911C157.352+37.4911+154.004+40.2451+151.574+44.5111C150.116+47.0491+149.306+49.6951+149.306+52.1251C149.306+53.7991+149.738+55.4191+150.764+56.7691C152.33+58.7671+154.22+59.4691+156.002+59.4691C161.024+59.4691+165.344+53.2591+166.748+47.9131C167.936+47.9671+168.908+47.8051+169.88+47.3731C166.208+54.0691+162.212+62.1691+161.24+65.2471C160.862+66.6511+160.646+67.8391+160.646+68.7571C160.646+69.8911+161.024+70.7011+161.402+71.2951C162.104+72.3751+162.86+72.1051+163.292+71.0791C165.614+65.8951+168.26+60.4951+170.852+55.6891C172.418+58.8211+175.82+59.9011+180.194+59.9011C184.19+59.9011+188.51+57.6871+190.616+54.1771C191.48+52.7191+191.588+51.5851+191.372+50.4511Z" opacity="1" fill="#752d27"/>
<path d="M197.42+46.0231C199.742+42.0811+202.712+39.5971+203.684+40.0291C203.954+40.1371+204.062+40.7851+204.062+41.7571C204.062+43.5391+203.414+46.2931+202.118+48.8311C199.904+53.3131+197.474+56.2831+195.8+56.2831C194.396+56.2831+194.018+52.3951+195.692+48.9391L197.42+46.0231ZM208.652+43.3771C208.652+40.6231+207.086+37.7071+203.846+37.7071C202.388+37.7071+200.822+38.4091+199.472+39.3271C199.472+38.6251+199.364+37.9231+198.932+37.3291C198.5+36.7351+197.798+36.5191+196.826+37.7071C193.478+42.1891+184.568+58.9831+183.002+64.1131C182.516+65.6251+182.354+66.7591+182.354+67.6231C182.354+68.7571+182.624+69.5131+183.434+70.5391C183.974+71.1871+184.622+70.9711+185.054+69.9991C187.322+64.7071+189.644+60.0631+192.02+55.6351C193.262+58.5511+195.908+60.0091+200.174+60.0091C204.656+60.0091+209.192+58.4971+211.622+54.1231C212.54+52.5031+212.486+50.9911+212.378+50.4511C212.162+49.3711+211.028+49.1011+210.38+50.3431C208.814+53.4751+205.736+57.0391+201.74+57.8491C203.468+56.4451+205.25+54.0151+206.546+51.0451C207.788+48.4531+208.652+45.6991+208.652+43.3771Z" opacity="1" fill="#752d27"/>
<path d="M217.022+47.0491C219.236+42.6751+222.908+39.5431+223.88+40.2991C224.42+40.7311+223.178+43.3771+221.666+45.3211C220.586+46.7791+219.128+48.3451+217.724+48.3451C217.346+48.3451+216.968+48.2371+216.536+48.0211C216.644+47.7511+216.752+47.5351+217.022+47.0491ZM247.154+50.2351C246.614+49.0471+245.804+49.2631+245.318+50.2891C243.698+54.0691+240.62+57.3631+238.676+57.3631C237.92+57.3631+237.488+56.4451+237.488+55.0411C237.488+54.3931+237.65+53.4211+237.866+52.7191C238.838+49.9651+241.484+46.2931+243.806+43.5931C244.454+42.8911+244.724+42.1891+244.724+41.5411C244.724+40.1911+243.806+38.7331+243.104+37.8151C242.456+36.9511+241.7+37.3291+240.836+37.8691C239.054+39.0031+237.65+39.7591+236.138+40.1371C236.732+38.3551+237.164+36.7351+237.164+35.6011C237.164+34.4131+236.732+33.7111+235.598+33.7111C233.762+33.7651+230.144+37.7071+230.144+40.5691C230.144+41.5411+230.684+42.3511+231.656+42.9451C228.794+49.5331+223.178+57.3091+217.778+57.3091C216.266+57.3091+215.294+55.6891+215.294+53.2051C215.294+52.2331+215.456+51.0991+215.78+50.0191C217.022+50.8831+218.318+51.2071+219.614+51.2071C221.99+51.2071+224.042+49.8571+225.608+47.9131C227.066+46.0231+227.876+43.8091+227.876+42.2431C227.876+41.5951+227.66+40.9471+227.39+40.4611C226.526+39.3811+225.5+38.5711+224.042+37.6531C223.502+37.3291+222.908+37.2211+222.206+37.2211C219.128+37.2211+214.7+40.2451+211.892+45.7531C210.812+47.9131+210.272+50.0731+210.272+51.9631C210.272+56.2291+213.026+59.4691+217.994+59.4151C224.582+59.3071+230.36+52.7191+234.788+43.4851C235.976+43.4311+237.326+43.2151+238.784+42.5671C236.624+45.1051+234.518+48.0751+233.6+50.9911C233.222+52.1251+233.06+53.0971+233.06+53.9611C233.06+57.1471+234.95+59.5231+238.352+59.5231C241.538+59.5231+245.534+57.2011+246.884+53.8531C247.586+52.3411+247.424+50.8291+247.154+50.2351Z" opacity="1" fill="#752d27"/>
</g>
</svg>
